<svg width="143" height="143" viewBox="0 0 143 143" fill="none" xmlns="http://www.w3.org/2000/svg">
<rect x="141.89" y="72.0616" width="100" height="100" rx="15" transform="rotate(135.711 141.89 72.0616)" fill="black"/>
<path d="M112.061 72.0607C112.646 71.4749 112.646 70.5251 112.061 69.9393L102.515 60.3934C101.929 59.8076 100.979 59.8076 100.393 60.3934C99.8076 60.9792 99.8076 61.9289 100.393 62.5147L108.879 71L100.393 79.4853C99.8076 80.0711 99.8076 81.0208 100.393 81.6066C100.979 82.1924 101.929 82.1924 102.515 81.6066L112.061 72.0607ZM31 72.5L111 72.5L111 69.5L31 69.5L31 72.5Z" fill="white"/>
</svg>
